<svg width="25" height="24" viewBox="0 0 25 24" fill="none" xmlns="http://www.w3.org/2000/svg">
<path d="M2.8868 6.70674C2.8868 8.49954 3.4856 9.79314 4.6652 10.5527C5.6324 11.1767 6.7532 11.2703 7.3364 11.2703C7.478 11.2703 7.592 11.2631 7.6712 11.2583C7.6712 11.2583 7.4864 12.4631 8.3792 13.6535H8.3384C6.7916 13.6535 1.7468 13.9763 1.7468 18.1259C1.7468 22.3451 6.38 22.5599 7.31 22.5599C7.3832 22.5599 7.4264 22.5575 7.4264 22.5575C7.436 22.5575 7.502 22.5599 7.616 22.5599C8.2124 22.5599 9.7544 22.4855 11.186 21.7883C13.0436 20.8883 13.9856 19.3175 13.9856 17.1263C13.9856 15.0095 12.5504 13.7495 11.5028 12.8279C10.8632 12.2651 10.31 11.7803 10.31 11.3087C10.31 10.8287 10.7144 10.4675 11.2244 10.0103C12.0512 9.27234 12.8312 8.21994 12.8312 6.23034C12.8312 4.48194 12.6044 3.30714 11.2064 2.56194C11.3516 2.48754 11.8676 2.43354 12.122 2.39754C12.8792 2.29434 13.9868 2.17674 13.9868 1.55874V1.43994H8.468C8.4128 1.44234 2.8868 1.64634 2.8868 6.70674ZM11.7956 17.5223C11.9012 19.2095 10.4576 20.4539 8.2892 20.6111C6.0872 20.7731 4.2752 19.7819 4.1696 18.0959C4.118 17.2847 4.4744 16.4927 5.1716 15.8603C5.8784 15.2207 6.8492 14.8247 7.9052 14.7467C8.03 14.7395 8.1536 14.7323 8.2772 14.7323C10.316 14.7335 11.696 15.9311 11.7956 17.5223ZM10.3544 5.55114C10.8956 7.45674 10.0784 9.44634 8.7752 9.81474C8.62518 9.85655 8.47013 9.87754 8.3144 9.87714C7.1216 9.87714 5.9396 8.66994 5.5004 7.00554C5.2556 6.07434 5.276 5.25594 5.5568 4.47114C5.8316 3.69714 6.3284 3.17754 6.9524 3.00114C7.1024 2.95914 7.2572 2.93754 7.4144 2.93754C8.8544 2.93754 9.7808 3.53514 10.3544 5.55114ZM19.7 9.59994V5.99994H17.3V9.59994H13.7V11.9999H17.3V15.5999H19.7V11.9999H23.3V9.59994H19.7Z" fill="white"/>
</svg>
