<svg width="29" height="28" viewBox="0 0 29 28" fill="none" xmlns="http://www.w3.org/2000/svg">
<rect x="0.5" width="28" height="28" rx="5" fill="#254D4D" fill-opacity="0.8"/>
<path fill-rule="evenodd" clip-rule="evenodd" d="M11.929 10.9237H15.643V12.4962C16.178 11.5918 17.55 10.7792 19.611 10.7792C23.562 10.7792 24.5 12.5795 24.5 15.8826V22H20.5V16.6348C20.5 14.7537 19.965 13.693 18.603 13.693C16.714 13.693 15.929 14.8362 15.929 16.634V22H11.929V10.9237ZM5.07 21.8555H9.07V10.7792H5.07V21.8555ZM9.643 7.1675C9.64315 7.45248 9.57666 7.73465 9.44739 7.9976C9.31812 8.26055 9.12865 8.49904 8.89 8.6992C8.4064 9.10773 7.75181 9.33641 7.07 9.335C6.38939 9.33461 5.73631 9.10652 5.252 8.70005C5.01421 8.49921 4.82539 8.26045 4.69634 7.99747C4.5673 7.73448 4.50058 7.45244 4.5 7.1675C4.5 6.59205 4.77 6.04125 5.253 5.63495C5.73689 5.22793 6.39024 4.99975 7.071 5C7.753 5 8.407 5.22865 8.89 5.63495C9.372 6.04125 9.643 6.59205 9.643 7.1675Z" fill="white"/>
</svg>
