<svg width="25" height="24" viewBox="0 0 25 24" fill="none" xmlns="http://www.w3.org/2000/svg">
<g clip-path="url(#clip0_5_148)">
<path d="M24.143 4.93708C23.308 5.30708 22.411 5.55708 21.468 5.67008C22.441 5.08787 23.1689 4.17154 23.516 3.09208C22.6018 3.63507 21.6013 4.01727 20.558 4.22208C19.8564 3.47294 18.9271 2.9764 17.9143 2.80955C16.9016 2.6427 15.8621 2.81487 14.9572 3.29933C14.0524 3.78379 13.3328 4.55344 12.9102 5.48878C12.4875 6.42412 12.3855 7.47283 12.62 8.47208C10.7677 8.37907 8.95562 7.89763 7.30142 7.05898C5.64722 6.22034 4.18784 5.04324 3.018 3.60408C2.618 4.29408 2.388 5.09408 2.388 5.94608C2.38755 6.71307 2.57643 7.46832 2.93788 8.14481C3.29932 8.8213 3.82216 9.39812 4.46 9.82408C3.72027 9.80054 2.99687 9.60066 2.35 9.24108V9.30108C2.34992 10.3768 2.72203 11.4195 3.40318 12.2521C4.08433 13.0847 5.03257 13.656 6.087 13.8691C5.40078 14.0548 4.68133 14.0821 3.983 13.9491C4.28049 14.8747 4.85999 15.6841 5.64036 16.264C6.42074 16.8439 7.36291 17.1653 8.335 17.1831C6.68483 18.4785 4.64688 19.1812 2.549 19.1781C2.17738 19.1782 1.80607 19.1565 1.437 19.1131C3.56647 20.4823 6.04534 21.2089 8.577 21.2061C17.147 21.2061 21.832 14.1081 21.832 7.95208C21.832 7.75208 21.827 7.55008 21.818 7.35008C22.7293 6.69105 23.5159 5.87497 24.141 4.94008L24.143 4.93708Z" fill="white"/>
</g>
<defs>
<clipPath id="clip0_5_148">
<rect width="24" height="24" fill="white" transform="translate(0.5)"/>
</clipPath>
</defs>
</svg>
